<svg xmlns="http://www.w3.org/2000/svg" xmlns:xlink="http://www.w3.org/1999/xlink" width="619.27" height="102.95" viewBox="0 0 619.27 102.95"><defs><style>.cls-1{fill:#787879;}.cls-2{fill:#00a15e;}.cls-3{fill:#fbcd48;}.cls-4{fill:#039056;}.cls-5{fill:#0d975b;}.cls-6{fill:#f9c940;}.cls-7{fill:#e1b63a;}.cls-8{fill:#e7b732;}.cls-9{fill:#406ab2;}.cls-10{fill:#4587f4;}.cls-11{fill:#446db3;}.cls-12{fill:url(#linear-gradient);}</style><linearGradient id="linear-gradient" x1="31.12" y1="19.02" x2="60.53" y2="2.04" gradientTransform="matrix(1, 0, 0, -1, 0, 103.95)" gradientUnits="userSpaceOnUse"><stop offset="0" stop-color="#336fd6"/><stop offset="1" stop-color="#508df5" stop-opacity="0"/></linearGradient></defs><title>Asset 1</title><g id="Layer_2" data-name="Layer 2"><g id="Layer_1-2" data-name="Layer 1"><path class="cls-1" d="M254.78,61.08c0-7.88-5.72-13.27-12.35-13.27s-12.35,5.39-12.35,13.27,5.72,13.27,12.35,13.27S254.78,68.87,254.78,61.08Zm9.62,0a22,22,0,1,1-22-21.9A21.63,21.63,0,0,1,264.4,61.08Z"/><path class="cls-1" d="M302.18,61.08c0-7.88-5.72-13.27-12.35-13.27s-12.35,5.39-12.35,13.27,5.72,13.27,12.35,13.27S302.18,68.87,302.18,61.08Zm9.62,0a22,22,0,1,1-22-21.9A21.63,21.63,0,0,1,311.8,61.08Z"/><path class="cls-1" d="M348.77,61.16c0-7.71-5.14-13.35-11.69-13.35s-12.2,5.64-12.2,13.35,5.56,13.19,12.2,13.19S348.77,68.79,348.77,61.16Zm8.45-20.66V79.82c0,16.18-9.54,22.78-20.82,22.78A20.86,20.86,0,0,1,317,89.7l8.37-3.49c1.49,3.56,5.14,7.77,11,7.77,7.22,0,11.69-4.45,11.69-12.84V78h-.34a14.91,14.91,0,0,1-11.53,5c-11,0-21-9.54-21-21.81s10-22,21-22a15.18,15.18,0,0,1,11.53,4.9h.34V40.51h9.13Z"/><rect class="cls-1" x="362.9" y="17.45" width="9.38" height="64.19"/><path class="cls-1" d="M385.86,60.41l19.57-8.13c-1.08-2.74-4.32-4.64-8.13-4.64A12,12,0,0,0,385.86,60.41Zm23,7.88,7.47,5A21.8,21.8,0,0,1,398.06,83c-12.44,0-21.73-9.62-21.73-21.9,0-13,9.37-21.9,20.66-21.9s16.93,9,18.74,13.93l1,2.49L387.44,67.72c2.24,4.39,5.73,6.64,10.62,6.64S406.35,71.94,408.84,68.29Z"/><path class="cls-1" d="M184.94,55.38V46.09h31.31a30.79,30.79,0,0,1,.46,5.61c0,7-1.91,15.59-8,21.73C202.7,79.66,195.06,83,185,83c-18.74,0-34.5-15.27-34.5-34S166.21,15,185,15a32.41,32.41,0,0,1,23.31,9.37l-6.56,6.56a23.69,23.69,0,0,0-16.76-6.64A24.4,24.4,0,0,0,160.55,49a24.4,24.4,0,0,0,24.39,24.72c8.88,0,13.93-3.56,17.17-6.8,2.63-2.63,4.35-6.38,5-11.5Z"/><path class="cls-1" d="M439.54,81.64V22.42h18.11q13.56,0,21.79,8.19T487.68,52q0,13.32-8.23,21.46t-21.79,8.15H439.54Zm7.61-51.94V74.36h10.5q10.34,0,16.29-5.91t6-16.42q0-10.42-6-16.38t-16.29-6Z"/><path class="cls-1" d="M501.33,81.64h-7.61V41.11H501v6.62h.33a11,11,0,0,1,4.76-5.5A13.2,13.2,0,0,1,513.16,40a14.27,14.27,0,0,1,5.62,1l-2.32,7.36a12.64,12.64,0,0,0-4.47-.58,9.85,9.85,0,0,0-7.48,3.47,11.62,11.62,0,0,0-3.18,8.11Z"/><path class="cls-1" d="M533.58,27.14a5.38,5.38,0,1,1-9.18-3.8,5.38,5.38,0,0,1,9.18,3.8Zm-1.57,14V81.64H524.4V41.11Z"/><path class="cls-1" d="M561.62,81.64H554L537.64,41.11h8.27l11.91,31.43H558l12.08-31.43h8.11Z"/><path class="cls-1" d="M600.08,83a19.38,19.38,0,0,1-14.72-6.12q-5.79-6.12-5.79-15.47A22,22,0,0,1,585.19,46a18.62,18.62,0,0,1,14.39-6.16q9,0,14.35,5.83T619.27,62l-.08.83H587.34a13.2,13.2,0,0,0,4,9.59,12.7,12.7,0,0,0,9.1,3.64q7.28,0,11.41-7.28L618.61,72a20.2,20.2,0,0,1-7.57,8A20.93,20.93,0,0,1,600.08,83ZM587.92,56.5h23.24a10.1,10.1,0,0,0-3.43-7,12,12,0,0,0-8.31-2.77,11,11,0,0,0-7.4,2.65A12.64,12.64,0,0,0,587.92,56.5Z"/><g id="_0ba25eff" data-name=" 0ba25eff"><path class="cls-2" d="M38.69,0h.1V.14h-.13Z"/><path class="cls-2" d="M38.29.79l.36-.52.16,0a31.29,31.29,0,0,0,.88,4.33c1.4,6.24,2.82,12.48,4.29,18.7,1,4.27,2,8.51,2.93,12.8.77,2.65,1.18,5.39,1.92,8,.48,2.48,1.23,4.89,1.63,7.38l-.49.82-.16.26-.06.1,0,.08-.36.67-.07.12-.17.29L49,54l-.19.34,0,.07-.24.42-.08.15-.09.16-.24.41-.07.13-.14.24-.1.17-.37.64-.07.12-.15.24-.1.17-.35.6-.08.14-.17.31-.07.11-.18.31-.07.13-.37.62-.08.14-.17.3-.06.11-.19.33-.07.12-.39.67-.07.12-.14.23-.1.17-.35.61-.06.11-.19.34-.06.1-.2.34-.07.11-.37.61-.1.17-.14.26-.07.13-.24.41-.08.14-.08.13c-.39.66-.75,1.35-1.18,2-2.48,4-4.76,8.21-7.16,12.3L22.58,99.62c-.58,1-1.25,2.06-1.75,3.15l-.1.15c-.93-1.35-1.65-2.83-2.51-4.23L6.53,78.45C4.36,74.66,2.11,70.91,0,67.07Q12.51,45.48,25,23.85l0-.05.23-.39,0-.07.23-.39.09-.14.09-.17.23-.41.07-.11.17-.27.12-.18.34-.51,0-.16.2-.39,0-.07.23-.39.09-.16.1-.18.2-.34.08-.14.16-.29.07-.13.37-.62.07-.13.17-.31.06-.1.22-.39.12-.19.15-.23.13-.18.12-.19.13-.24.17-.36.13-.18.09-.13.35-.3,0-.27.06-.13.2-.39.07-.11.17-.28.13-.19.32-.51.09-.18.12-.27.16-.28.15-.22.13-.18.11-.19.11-.24.1-.22.2-.39.12-.19.15-.23.13-.18.12-.19.12-.24L33,10l.16-.26.11-.18.34-.52,0-.16.2-.39,0-.06L34.1,8l.09-.16.09-.15.23-.41,0-.07.22-.38,0-.07.24-.4.08-.14.09-.16.22-.39.06-.1.19-.3.12-.18.34-.51,0-.16.2-.38L36.45,4l.18-.28.13-.18L37.08,3l0-.15.2-.38,0-.07.24-.4.08-.14.08-.15L38,1.28l0-.07.22-.37Z"/></g><g id="_fccd48ff" data-name=" fccd48ff"><path class="cls-3" d="M98,34.59a4,4,0,0,0,0-1.19A3.67,3.67,0,0,1,98,34.59Z"/></g><g id="_089156ff" data-name=" 089156ff"><path class="cls-4" d="M38.67.14h.13v.1l-.16,0Z"/><path class="cls-2" d="M38.82.24a18.41,18.41,0,0,1,1.27,2.07Q49.79,19.1,59.47,35.9q-4.48,7.81-9,15.6c-.4-2.49-1.15-4.91-1.63-7.38-.74-2.66-1.15-5.39-1.92-8C46,31.79,45,27.54,44,23.27c-1.47-6.22-2.89-12.46-4.29-18.7A31.29,31.29,0,0,1,38.82.24Z"/><path class="cls-4" d="M38.26.84l0,0Z"/><path class="cls-4" d="M38,1.28l0-.07Z"/><path class="cls-4" d="M37.69,1.85l.08-.15Z"/><path class="cls-4" d="M37.61,2l.08-.14Z"/><path class="cls-4" d="M37.33,2.46l0-.07Z"/><path class="cls-4" d="M37.08,3l0-.15Z"/><path class="cls-4" d="M36.76,3.51,37.08,3Z"/><path class="cls-4" d="M36.63,3.69l.13-.18Z"/><path class="cls-4" d="M36.39,4.08,36.45,4Z"/><path class="cls-4" d="M36.15,4.62l0-.16Z"/><path class="cls-4" d="M35.81,5.13l.34-.51Z"/><path class="cls-4" d="M35.69,5.31l.12-.18Z"/><path class="cls-4" d="M35.45,5.72l.06-.1Z"/><path class="cls-4" d="M35.13,6.27l.09-.16Z"/><path class="cls-4" d="M35,6.42l.08-.14Z"/><path class="cls-4" d="M34.77,6.88l0-.07Z"/><path class="cls-4" d="M34.52,7.33l0-.07Z"/><path class="cls-4" d="M34.19,7.89l.09-.15Z"/><path class="cls-4" d="M34.1,8l.09-.16Z"/><path class="cls-4" d="M33.83,8.51l0-.06Z"/><path class="cls-4" d="M33.59,9.05l0-.16Z"/><path class="cls-4" d="M33.25,9.57l.34-.52Z"/><path class="cls-4" d="M33.14,9.75l.11-.18Z"/><path class="cls-4" d="M32.85,10.28,33,10Z"/><path class="cls-4" d="M32.61,10.71l.12-.19Z"/><path class="cls-4" d="M32.48,10.89l.13-.18Z"/><path class="cls-4" d="M32.21,11.31l.12-.19Z"/><path class="cls-4" d="M31.9,11.91l.1-.22Z"/><path class="cls-4" d="M31.68,12.34l.11-.19Z"/><path class="cls-4" d="M31.55,12.51l.13-.18Z"/><path class="cls-4" d="M31.24,13l.16-.28Z"/><path class="cls-4" d="M31,13.47l.09-.18Z"/><path class="cls-4" d="M30.71,14l.32-.51Z"/><path class="cls-4" d="M30.58,14.17l.13-.19Z"/><path class="cls-4" d="M30.34,14.57l.07-.11Z"/><path class="cls-4" d="M30.08,15.09l.06-.13Z"/><path class="cls-4" d="M29.75,15.66l.33-.57,0,.27Z"/><path class="cls-4" d="M29.66,15.79l.09-.13Z"/><path class="cls-4" d="M29.36,16.33l.17-.36Z"/><path class="cls-4" d="M29.12,16.76l.12-.19Z"/><path class="cls-4" d="M29,16.94l.13-.18Z"/><path class="cls-4" d="M28.72,17.36l.12-.19Z"/><path class="cls-4" d="M28.44,17.84l.06-.1Z"/><path class="cls-4" d="M28.2,18.28l.07-.13Z"/><path class="cls-4" d="M27.76,19l.07-.13Z"/><path class="cls-4" d="M27.51,19.47l.08-.14Z"/><path class="cls-4" d="M27.21,20l.1-.18Z"/><path class="cls-4" d="M27.12,20.15l.09-.16Z"/><path class="cls-4" d="M26.85,20.6l0-.07Z"/><path class="cls-4" d="M26.61,21.15l0-.16Z"/><path class="cls-4" d="M26.27,21.66l.34-.51Z"/><path class="cls-4" d="M26.15,21.84l.12-.18Z"/><path class="cls-4" d="M25.91,22.23l.07-.11Z"/><path class="cls-4" d="M25.59,22.8l.09-.17Z"/><path class="cls-4" d="M25.5,22.95l.09-.14Z"/><path class="cls-4" d="M25.23,23.41l0-.07Z"/><path class="cls-4" d="M25,23.85l0-.05Z"/><path class="cls-4" d="M49.82,52.57l.16-.26Z"/><path class="cls-4" d="M49.71,52.75l0-.08Z"/><path class="cls-4" d="M49.28,53.54l.07-.12Z"/><path class="cls-4" d="M49,54l.08-.14Z"/><path class="cls-4" d="M48.8,54.38l0-.07Z"/><path class="cls-4" d="M48.48,54.95l.08-.15Z"/><path class="cls-4" d="M48.38,55.11l.09-.16Z"/><path class="cls-4" d="M48.08,55.64l.07-.13Z"/><path class="cls-4" d="M47.83,56.05l.1-.17Z"/><path class="cls-4" d="M47.4,56.81l.07-.12Z"/><path class="cls-4" d="M47.15,57.23l.1-.17Z"/><path class="cls-4" d="M46.72,58l.08-.14Z"/><path class="cls-4" d="M46.48,58.4l.07-.11Z"/><path class="cls-4" d="M46.22,58.85l.07-.13Z"/><path class="cls-4" d="M45.78,59.61l.08-.14Z"/><path class="cls-4" d="M45.55,60l.06-.11Z"/><path class="cls-4" d="M45.29,60.46l.07-.12Z"/><path class="cls-4" d="M44.83,61.25l.07-.12Z"/><path class="cls-4" d="M44.6,61.65l.1-.17Z"/><path class="cls-4" d="M44.18,62.37l.06-.11Z"/><path class="cls-4" d="M43.94,62.81l.06-.1Z"/><path class="cls-4" d="M43.68,63.26l.07-.11Z"/><path class="cls-4" d="M43.21,64l.1-.17Z"/><path class="cls-4" d="M43,64.42l.07-.13Z"/><path class="cls-4" d="M42.69,65l.08-.14Z"/><path class="cls-4" d="M42.61,65.1l.08-.13Z"/></g><g id="_10985bff" data-name=" 10985bff"><path class="cls-5" d="M80.63.75l.07.13Z"/><path class="cls-5" d="M82.52,4l0,.07Z"/><path class="cls-5" d="M86,10.09l0,.07Z"/><path class="cls-5" d="M86.69,11.23l.07.13Z"/><path class="cls-5" d="M87.64,12.89l0,.07Z"/><path class="cls-5" d="M88.56,14.49l.07.12Z"/><path class="cls-5" d="M89.5,16.11l.07.12Z"/></g><g id="_f9c941ff" data-name=" f9c941ff"><path class="cls-3" d="M98,34.59a4,4,0,0,0,0-1.19A3.67,3.67,0,0,1,98,34.59Z"/><path class="cls-6" d="M118.69,66.9h.12l.07.18h-.14Z"/></g><g id="_e3b73aff" data-name=" e3b73aff"><path class="cls-7" d="M59.9,36.62l.07.13Z"/><path class="cls-7" d="M60.33,37.37l.06.11Z"/><path class="cls-7" d="M60.58,37.82l0,.08Z"/><path class="cls-7" d="M60.86,38.3l.08.14Z"/><path class="cls-7" d="M60.94,38.44l.09.15Z"/><path class="cls-7" d="M61.25,39l0,.08Z"/><path class="cls-7" d="M61.76,39.85l.08.14Z"/><path class="cls-7" d="M62.2,40.61l.08.13Z"/><path class="cls-7" d="M62.48,41.08l.18.3Z"/><path class="cls-7" d="M62.73,41.5l0,.08Z"/><path class="cls-7" d="M63.18,42.32l.18.25Z"/><path class="cls-7" d="M63.42,42.67l0,.08Z"/><path class="cls-7" d="M64.11,43.93l.17.26Z"/><path class="cls-7" d="M64.35,44.3l0,.08Z"/><path class="cls-7" d="M64.76,45l.08.14Z"/><path class="cls-7" d="M65,45.45l.09.16Z"/><path class="cls-7" d="M65.28,45.95l.1.17Z"/><path class="cls-7" d="M65.37,46.12l.08.15Z"/><path class="cls-7" d="M65.7,46.67l0,.07Z"/><path class="cls-7" d="M66,47.13l.07.13Z"/><path class="cls-7" d="M66.18,47.5l.1.17Z"/><path class="cls-7" d="M66.68,48.35l.16.27Z"/><path class="cls-7" d="M66.91,48.72l0,.08Z"/><path class="cls-7" d="M67.37,49.45l0,0v0Z"/><path class="cls-7" d="M67.85,50.41l.08.14Z"/><path class="cls-7" d="M67.93,50.55l.09.16Z"/><path class="cls-7" d="M68.24,51.08l0,.08Z"/></g><g id="_e8b835ff" data-name=" e8b835ff"><path class="cls-8" d="M110,51.69l.07.13Z"/><path class="cls-8" d="M110.47,52.43l.07.12Z"/><path class="cls-8" d="M110.74,52.87l0,.09Z"/><path class="cls-8" d="M111,53.36l.09.16Z"/><path class="cls-8" d="M111.11,53.52l.08.14Z"/><path class="cls-8" d="M111.42,54.06l0,.07Z"/><path class="cls-8" d="M111.68,54.52l0,.06Z"/><path class="cls-8" d="M112,55l.09.16Z"/><path class="cls-8" d="M112,55.13l.09.15Z"/><path class="cls-8" d="M112.36,55.7l.13.32Z"/><path class="cls-8" d="M112.56,56.15l.08.13-.05-.07Z"/><path class="cls-8" d="M112.78,56.49l.19.31Z"/><path class="cls-8" d="M113,56.8l.12.19Z"/><path class="cls-8" d="M113.24,57.23l.19.42Z"/><path class="cls-8" d="M113.5,57.78l0,.08,0,0Z"/><path class="cls-8" d="M113.95,58.46l.1.17Z"/><path class="cls-8" d="M114.19,58.86l.08.14Z"/><path class="cls-8" d="M114.51,59.42l.08.15Z"/><path class="cls-8" d="M114.6,59.57l.08.15Z"/><path class="cls-8" d="M114.91,60.11l0,.07Z"/><path class="cls-8" d="M115.17,60.55l.06.1Z"/><path class="cls-8" d="M115.44,61l.1.17Z"/><path class="cls-8" d="M115.54,61.19l.09.15Z"/><path class="cls-3" d="M118.69,66.9v-.21l-.25-.46,0-.07-.24-.4a1.19,1.19,0,0,0-.09-.15c0-.05-.07-.12-.09-.16l-.23-.4a.33.33,0,0,0,0-.06l-.22-.39,0-.06-.23-.4a1.19,1.19,0,0,1-.09-.15l-.08-.15-.24-.41-.11-.18-.16-.23-.14-.17s-.08-.15-.11-.19l-.11-.25s-.06-.14-.09-.19c-.15-.3-.32-.59-.49-.88l-.08-.14-.11-.17-.21-.38a.47.47,0,0,0-.06-.09l-.21-.38a.44.44,0,0,1,0-.07l-.23-.4-.09-.14-.08-.15-.23-.41a1.19,1.19,0,0,1-.09-.15l-.14-.23a1.5,1.5,0,0,1-.1-.17l-.41-.6,0,0,0,0-.07-.13-.18-.42-.16-.25L113,56.8l-.2-.31-.13-.21,0-.06,0-.07-.07-.13-.13-.32-.23-.41a1.29,1.29,0,0,1-.09-.16L112,55l-.23-.4,0-.06-.23-.39,0-.07-.23-.39-.08-.15-.1-.16-.23-.4,0-.09-.18-.32-.08-.12c-.09-.15-.27-.46-.37-.61l-.07-.13c-4-7-8.09-14-12.14-21q-4.15-7.2-8.32-14.4l-.07-.13c-.29-.5-.57-1-.87-1.5l-.07-.12c-.29-.51-.58-1-.88-1.53a.16.16,0,0,0,0-.07l-.88-1.53-.07-.13c-.21-.36-.43-.71-.63-1.07l0-.07q-1.72-3-3.46-6l0-.07C81.92,3,81.31,1.93,80.7.88a.83.83,0,0,0-.07-.13C80.5.52,80.37.28,80.25,0,74,0,67.73,0,61.48,0,53.92,0,46.35,0,38.79,0V.24a16.88,16.88,0,0,1,1.27,2.07Q49.79,19.09,59.47,35.9c.14.24.28.48.43.72l.07.13.36.62a.6.6,0,0,0,.06.11l.19.34a.35.35,0,0,0,0,.08l.23.41.08.13.09.16.22.38.05.08c.15.26.3.53.46.79l.08.15.36.61.08.14.2.33c0,.08.14.23.18.31l.07.11a.3.3,0,0,0,0,.08l.41.74.18.24.06.11,0,.08c.21.4.42.79.65,1.18,0,.06.13.19.18.26l.06.11,0,.08c.1.16.28.5.37.66l.08.14.15.27.09.16.2.34.09.17s.06.11.09.15l.23.4,0,.07.23.39.07.13.15.24a1.49,1.49,0,0,0,.1.17l.4.68.16.27.07.1,0,.08c.11.16.31.49.42.65v0l0,0a7.56,7.56,0,0,0,.45.9l.08.14.09.15.22.38,0,.08.15.28c3,5.24,6.08,10.43,9,15.69h.15c7.16,0,14.32,0,21.48,0,6.54,0,13.09.09,19.63-.06ZM98,34.59a4,4,0,0,0,0-1.19A3.67,3.67,0,0,1,98,34.59Z"/><path class="cls-8" d="M116.11,62.22l.09.2Z"/><path class="cls-8" d="M116.31,62.66l.11.19Z"/><path class="cls-8" d="M116.42,62.84l.14.18Z"/><path class="cls-8" d="M116.72,63.25l.11.18Z"/><path class="cls-8" d="M117.07,63.84l.08.15Z"/><path class="cls-8" d="M117.15,64l.09.15Z"/><path class="cls-8" d="M117.47,64.53l0,.07Z"/><path class="cls-8" d="M117.73,65l0,.06Z"/><path class="cls-8" d="M118,65.44l.09.16Z"/><path class="cls-8" d="M118.09,65.61l.09.16Z"/><path class="cls-8" d="M118.41,66.16l0,.07Z"/><path class="cls-8" d="M118.69,66.69l.12.21h-.12Z"/></g><g id="_296ad9ff" data-name=" 296ad9ff"><path class="cls-9" d="M20.73,102.92l.1-.15v.15Z"/></g><g id="_2a71e9ff" data-name=" 2a71e9ff"><path class="cls-10" d="M119,67.11h0Q108.61,85,98.28,102.95l-77.46,0v-.15c.5-1.09,1.17-2.1,1.75-3.15L34.26,79.39c2.4-4.09,4.68-8.26,7.16-12.3,12,0,24-.07,36,0h.16c7.15,0,14.32,0,21.48,0,6.53,0,13.09.09,19.62-.06h.14Z"/></g><g id="_286ee6ff" data-name=" 286ee6ff"><path class="cls-11" d="M37.74,87.3l.12-.1Z"/><path class="cls-11" d="M37.49,87.5l.25-.2Z"/><path class="cls-11" d="M37.37,87.6l.12-.1Z"/><path class="cls-11" d="M34.72,90.09l.12-.1Z"/><path class="cls-11" d="M34.6,90.19l.12-.1Z"/></g><polygon class="cls-12" points="41.42 67.09 59.94 102.94 20.83 102.77 41.42 67.09"/></g></g></svg>