<svg xmlns="http://www.w3.org/2000/svg" width="623.81" height="110.64" viewBox="0 0 623.81 110.64"><defs><style>.cls-1,.cls-3{fill:none;}.cls-2{fill:#fff;}.cls-3{stroke:#fff;stroke-linecap:round;stroke-linejoin:round;stroke-width:0;}</style></defs><title>Asset 2</title><g id="Layer_2" data-name="Layer 2"><g id="Layer_1-2" data-name="Layer 1"><path class="cls-1" d="M247,55.85c-6.64,0-12.35,5.39-12.35,13.27S240.33,82.39,247,82.39s12.35-5.48,12.35-13.27S253.6,55.85,247,55.85Z"/><path class="cls-1" d="M68.37,48.87c1.8.59,3.63,1.06,5.41,1.69C72,49.94,70.17,49.46,68.37,48.87Z"/><path class="cls-1" d="M462.2,37.74h-10.5V82.4h10.5q10.34,0,16.29-5.91t6-16.42q0-10.42-6-16.38T462.2,37.74Z"/><path class="cls-1" d="M294.37,55.85c-6.64,0-12.35,5.39-12.35,13.27s5.72,13.27,12.35,13.27,12.35-5.48,12.35-13.27S301,55.85,294.37,55.85Z"/><polygon class="cls-1" points="114.77 67.62 114.83 67.5 114.77 67.62 114.77 67.62"/><path class="cls-1" d="M341.62,55.85c-6.64,0-12.2,5.64-12.2,13.35s5.56,13.19,12.2,13.19,11.69-5.56,11.69-13.19S348.16,55.85,341.62,55.85Z"/><path class="cls-1" d="M401.84,55.68A12,12,0,0,0,390.4,68.45L410,60.32C408.9,57.58,405.66,55.68,401.84,55.68Z"/><path class="cls-1" d="M612.27,57.55A12,12,0,0,0,604,54.78a11,11,0,0,0-7.4,2.65,12.64,12.64,0,0,0-4.09,7.11H615.7A10.1,10.1,0,0,0,612.27,57.55Z"/><path class="cls-1" d="M64.14,101.9a4,4,0,0,1-1-.64A3.67,3.67,0,0,0,64.14,101.9Z"/><path class="cls-2" d="M247,47.22a21.9,21.9,0,1,0,22,21.9A21.58,21.58,0,0,0,247,47.22Zm0,35.17c-6.64,0-12.35-5.47-12.35-13.27S240.33,55.85,247,55.85s12.35,5.39,12.35,13.27S253.6,82.39,247,82.39Z"/><path class="cls-2" d="M294.37,47.22a21.9,21.9,0,1,0,22,21.9A21.58,21.58,0,0,0,294.37,47.22Zm0,35.17c-6.64,0-12.35-5.47-12.35-13.27s5.72-13.27,12.35-13.27,12.35,5.39,12.35,13.27S301,82.39,294.37,82.39Z"/><line class="cls-3" x1="361.76" y1="48.54" x2="361.76" y2="48.55"/><path class="cls-2" d="M352.63,52.11h-.34a15.18,15.18,0,0,0-11.53-4.9c-11,0-21,9.62-21,22s10,21.81,21,21.81a14.91,14.91,0,0,0,11.53-5h.34v3.15c0,8.38-4.47,12.84-11.69,12.84-5.89,0-9.54-4.21-11-7.77l-8.37,3.49a20.86,20.86,0,0,0,19.41,12.91c11.28,0,20.82-6.61,20.82-22.78V48.55h-9.13Zm-11,30.28c-6.64,0-12.2-5.56-12.2-13.19s5.56-13.35,12.2-13.35,11.69,5.64,11.69,13.35S348.16,82.39,341.62,82.39Z"/><rect class="cls-2" x="367.44" y="25.49" width="9.38" height="64.19"/><path class="cls-2" d="M420.26,61.14c-1.82-4.89-7.38-13.93-18.74-13.93s-20.66,8.88-20.66,21.9c0,12.28,9.29,21.9,21.73,21.9a21.8,21.8,0,0,0,18.25-9.71l-7.47-5c-2.49,3.65-5.89,6.06-10.78,6.06s-8.37-2.24-10.62-6.64l29.28-12.13ZM390.4,68.45a12,12,0,0,1,11.45-12.77c3.81,0,7.05,1.91,8.13,4.64Z"/><path class="cls-2" d="M189.48,54.13v9.29h22.21c-.68,5.13-2.41,8.88-5,11.5-3.24,3.24-8.3,6.8-17.17,6.8A24.4,24.4,0,0,1,165.09,57a24.4,24.4,0,0,1,24.39-24.72,23.69,23.69,0,0,1,16.76,6.64l6.56-6.56A32.41,32.41,0,0,0,189.49,23C170.75,23,155,38.26,155,57s15.76,34,34.5,34c10.11,0,17.75-3.32,23.72-9.54,6.14-6.14,8-14.76,8-21.73a30.79,30.79,0,0,0-.46-5.61Z"/><path class="cls-2" d="M462.2,30.46H444.08V89.68H462.2q13.56,0,21.79-8.15t8.23-21.46q0-13.23-8.23-21.42T462.2,30.46Zm16.29,46q-6,5.92-16.29,5.91h-10.5V37.74h10.5q10.34,0,16.29,6t6,16.38Q484.45,70.57,478.49,76.49Z"/><path class="cls-2" d="M510.62,50.27a11,11,0,0,0-4.76,5.5h-.33V49.15h-7.28V89.68h7.61V67.35a11.62,11.62,0,0,1,3.18-8.11,9.85,9.85,0,0,1,7.48-3.47,12.64,12.64,0,0,1,4.47.58L523.32,49a14.27,14.27,0,0,0-5.62-1A13.2,13.2,0,0,0,510.62,50.27Z"/><rect class="cls-2" x="528.94" y="49.15" width="7.61" height="40.53"/><path class="cls-2" d="M532.75,29.8a5.38,5.38,0,0,0-3.8,9.18,5.38,5.38,0,0,0,7.61-7.61A5.18,5.18,0,0,0,532.75,29.8Z"/><polygon class="cls-2" points="562.52 80.58 562.36 80.58 550.45 49.15 542.17 49.15 558.55 89.68 566.16 89.68 582.7 49.15 574.6 49.15 562.52 80.58"/><path class="cls-2" d="M623.81,70q0-10.5-5.33-16.34t-14.35-5.83A18.62,18.62,0,0,0,589.73,54a22,22,0,0,0-5.62,15.43q0,9.35,5.79,15.47A19.38,19.38,0,0,0,604.62,91a20.93,20.93,0,0,0,11-2.89,20.2,20.2,0,0,0,7.57-8l-6.78-3.31q-4.14,7.28-11.41,7.28a12.7,12.7,0,0,1-9.1-3.64,13.2,13.2,0,0,1-4-9.59h31.84Zm-31.35-5.46a12.64,12.64,0,0,1,4.09-7.11,11,11,0,0,1,7.4-2.65,12,12,0,0,1,8.31,2.77,10.1,10.1,0,0,1,3.43,7Z"/><path class="cls-2" d="M41.14,3.33l9.57,16.83c2.32,4.14,4.76,8.22,7,12.4.33.7.74,1.35,1.11,2l.08.13.08.14.24.42.08.13.15.25.09.17.34.62.06.11.2.34.06.1.2.34.06.11.35.61.09.17.13.24.07.12.38.67.07.12.19.33.06.11.17.29.08.15.35.63.07.13.18.31.07.11.18.31.08.14.34.61.1.17.14.25.07.12.37.65.1.17.14.25.07.13.14.25h0l.09.16.09.16.08.15.24.42,0,.07.19.34.08.14.17.29.07.12.39.65,0,.08.06.11.14.27.46.84c.59.23,1.18.43,1.78.63,1.8.59,3.63,1.06,5.41,1.69-1.78-.63-3.62-1.11-5.41-1.69-.6-.2-1.19-.4-1.78-.63Q71,56.08,75.49,63.89l38.78.25a18.41,18.41,0,0,0,2.42,0l.06-.15-.27-.57,0-.05-.21-.38,0-.07-.24-.41-.09-.15-.08-.14-.23-.41,0-.07-.23-.37-.11-.11-.28-.54-.09-.2-.15-.29-.07-.12-.23-.36-.12-.11L114,59l-.09-.19-.17-.32-.06-.1-.23-.39-.09-.16-.08-.15-.22-.4,0-.07-.22-.38,0-.07-.23-.41-.09-.16-.09-.16-.23-.4,0-.06-.23-.37,0,0,0,.09,0-.09-.07-.07-.28-.56-.09-.19-.14-.27-.16-.25-.06-.09.2.38.11.17-.11-.17-.2-.38-.09-.14-.1-.2-.09-.2-.09-.19,0,0,0,0,0-.06-.11-.2-.23-.37-.13-.2,0-.06L110,52v0l-.09-.18-.09-.2-.05-.11-.16-.23.16.23-.06-.13-.17-.28-.17-.24,0,0,0,0,.1.19-.1-.19,0,0-.09-.13-.28-.54-.1-.2-.16-.29-.07-.11-.24-.37-.08-.12-.24-.12-.08-.45-.06-.14-.08-.17,0-.06-.21-.3-.15-.23-.1-.19-.09-.2-.12-.25-.1-.2-.22-.39-.06-.1-.18-.3-.07-.13-.35-.63-.07-.13-.16-.29-.08-.15-.2-.34-.1-.18-.09-.16-.22-.4,0-.07-.23-.37-.12-.11-.26-.55-.1-.2-.15-.29-.06-.11-.24-.41-.1-.16-.08-.15-.22-.4,0-.07-.22-.39,0-.05C95.09,25.76,88.84,14.77,80.64.3,76.27.18,71.89.23,67.52.18L44.15,0c-1.64,0-3.28-.1-4.92,0l.08.16C40,1.21,40.53,2.29,41.14,3.33ZM66.92,48.82l0,.07Zm.24.41.08.14Zm.25.43.07.12Zm.46.77,0,.08Zm.1.18.14.27Zm48,11.9.27.55.12.11-.12-.11-.27-.55-.09-.19Zm-.26-.51-.06-.1Zm-2.27-3.94.28.56.12.11-.12-.11-.28-.56-.09-.19Zm-.24-.46-.16-.25Zm-.42-.67.1.2-.1-.2-.09-.2Zm-.55-1-.13-.2ZM112,55.5l-.1-.19Zm-1.67-3,.08.12Zm-3.48-6.06.12.11-.12-.11-.26-.55Zm-.26-.55-.1-.2Zm-.55-1-.1-.16Zm-.1-.16-.08-.15Zm-40.5,1.37L65.3,46ZM65,45.35l-.08-.14Zm-.26-.45-.07-.11ZM64,43.71l-.08-.15Zm-1.15-2-.09-.17Zm-.44-.78-.06-.11Zm-.91-1.62-.09-.17Zm-.24-.42-.08-.12Z"/><path class="cls-2" d="M107.83,48.14l0,0,0,.06Z"/><path class="cls-3" d="M114.47,66.85l0-.05"/><path class="cls-3" d="M114.23,66.42l0-.07"/><path class="cls-3" d="M117.86,65.79l.09.15"/><path class="cls-3" d="M117.78,65.65l.08.14"/><path class="cls-3" d="M117.52,65.18l0,.07"/><path class="cls-3" d="M117.18,64.69l.11.11"/><path class="cls-3" d="M116.9,64.15l.28.54"/><path class="cls-3" d="M116.81,63.95l.09.2"/><path class="cls-3" d="M116.59,63.54l.07.12"/><path class="cls-3" d="M116.24,63.07l.12.11"/><path class="cls-3" d="M116,62.51l.27.55"/><path class="cls-3" d="M115.88,62.32l.09.19"/><path class="cls-3" d="M115.66,61.91l.06.1"/><path class="cls-3" d="M115.34,61.35l.09.16"/><path class="cls-3" d="M115.25,61.21l.08.15"/><path class="cls-3" d="M115,60.73l0,.07"/><path class="cls-3" d="M114.74,60.29l0,.07"/><path class="cls-3" d="M114.42,59.72l.09.16"/><path class="cls-3" d="M114.33,59.57l.09.16"/><path class="cls-3" d="M114.06,59.1l0,.06"/><path class="cls-3" d="M113.72,58.62l.12.11"/><path class="cls-3" d="M113.44,58.06l.28.56"/><path class="cls-3" d="M113.44,58.06l-.09-.19"/><path class="cls-3" d="M113,57.35l.16.25"/><path class="cls-3" d="M112.79,56.93l.1.2"/><path class="cls-3" d="M112.7,56.73l.09.2"/><path class="cls-3" d="M112.47,56.28l.11.2"/><path class="cls-3" d="M112.1,55.71l.13.2"/><path class="cls-3" d="M112,55.5l-.1-.19"/><line class="cls-3" x1="111.85" y1="55.3" x2="111.81" y2="55.21"/><line class="cls-3" x1="111.81" y1="55.21" x2="111.76" y2="55.1"/><path class="cls-3" d="M111.49,54.58l.17.28"/><path class="cls-3" d="M111.32,54.34l-.11-.17"/><path class="cls-3" d="M111.2,54.17l-.2-.38"/><path class="cls-3" d="M111,53.79l-.08-.15"/><path class="cls-3" d="M110.83,53.43l.1.2"/><path class="cls-3" d="M110.63,53.07l0,.07"/><path class="cls-3" d="M110.6,53l0,0"/><path class="cls-3" d="M110.36,52.65l-.08-.12"/><path class="cls-3" d="M110,52l-.06-.14"/><path class="cls-3" d="M109.58,51.28l.16.23"/><path class="cls-3" d="M109.74,51.51l.07.1"/><path class="cls-3" d="M109.43,51.05l-.1-.19"/><path class="cls-3" d="M109.31,50.82l-.08-.17"/><path class="cls-3" d="M109.33,50.86l0,0"/><path class="cls-3" d="M109,50.21l.1.2"/><path class="cls-3" d="M108.73,49.73l.06.1"/><line class="cls-3" x1="108.48" y1="49.29" x2="108.55" y2="49.42"/><path class="cls-3" d="M108.05,48.53l.07.13"/><path class="cls-3" d="M107.84,48.17l0,.08"/><path class="cls-3" d="M107.81,48.11l0,.06"/><path class="cls-3" d="M107.81,48.11h0"/><path class="cls-3" d="M107.51,47.58l.1.18"/><path class="cls-3" d="M107.42,47.42l.09.16"/><line class="cls-3" x1="107.16" y1="46.96" x2="107.2" y2="47.02"/><path class="cls-3" d="M106.93,46.59l-.12-.11"/><path class="cls-3" d="M106.8,46.47l-.26-.55"/><path class="cls-3" d="M106.54,45.92l-.1-.2"/><line class="cls-3" x1="106.23" y1="45.33" x2="106.3" y2="45.44"/><path class="cls-3" d="M106,44.92l-.1-.16"/><path class="cls-3" d="M105.9,44.76l-.08-.15"/><path class="cls-3" d="M105.56,44.15l0,.07"/><path class="cls-3" d="M105.31,43.7l0,.05"/><path class="cls-3" d="M68,50.61l.14.27"/><path class="cls-3" d="M67.86,50.43l0,.08"/><path class="cls-3" d="M67.4,49.66l.07.12"/><path class="cls-3" d="M67.15,49.23l.08.14"/><path class="cls-3" d="M66.92,48.82l0,.07"/><path class="cls-3" d="M66.59,48.25l.08.15"/><path class="cls-3" d="M66.59,48.25l-.09-.16"/><path class="cls-3" d="M66.27,47.69l-.07-.13"/><path class="cls-3" d="M66.06,47.31l-.1-.17"/><path class="cls-3" d="M65.53,46.38l.07.12"/><path class="cls-3" d="M65.3,46l.1.17"/><path class="cls-3" d="M64.87,45.21l.08.14"/><path class="cls-3" d="M64.62,44.78l.07.11"/><line class="cls-3" x1="64.44" y1="44.46" x2="64.37" y2="44.34"/><line class="cls-3" x1="64.44" y1="44.47" x2="64.44" y2="44.46"/><path class="cls-3" d="M63.94,43.57l.08.15"/><path class="cls-3" d="M63.76,43.27l-.06-.11"/><path class="cls-3" d="M63.51,42.83l-.07-.12"/><path class="cls-3" d="M63.06,42,63,41.92"/><path class="cls-3" d="M62.77,41.52l.09.17"/><path class="cls-3" d="M62.36,40.8l.06.11"/><path class="cls-3" d="M62.17,40.46l-.06-.1"/><path class="cls-3" d="M61.91,40l-.06-.11"/><path class="cls-3" d="M61.42,39.12l.09.17"/><path class="cls-3" d="M61.19,38.75l.08.12"/><path class="cls-3" d="M61,38.33l-.08-.14"/><path class="cls-3" d="M60.87,38.19l-.08-.13"/><path class="cls-3" d="M97,103.4h.07"/><path class="cls-3" d="M97,103.4h-.07"/><path class="cls-3" d="M93.3,103.37h-.08"/><path class="cls-3" d="M86.31,103.32h-.08"/><path class="cls-3" d="M85,103.33h-.14"/><path class="cls-3" d="M83.08,103.31H83"/><path class="cls-3" d="M81.23,103.29h-.14"/><path class="cls-3" d="M79.36,103.28h-.14"/><path class="cls-3" d="M66.44,67.31h-.19"/><path class="cls-2" d="M65.67,67.3h0Z"/><path class="cls-3" d="M65.67,67.3H65.5"/><path class="cls-3" d="M38.28,103h-.15"/><path class="cls-3" d="M37.42,103h-.14"/><path class="cls-3" d="M36.91,103h-.1"/><path class="cls-2" d="M36.16,103Z"/><polygon class="cls-2" points="36.16 103.01 36.16 103.01 36.16 103.01 36.16 103.01"/><path class="cls-3" d="M36.16,103H36"/><line class="cls-3" x1="36.16" y1="103.01" x2="36.16" y2="103.01"/><line class="cls-3" x1="36.16" y1="103.01" x2="36.16" y2="103.01"/><line class="cls-3" x1="35.53" y1="103.01" x2="35.46" y2="103.01"/><path class="cls-3" d="M35,103h-.07"/><path class="cls-3" d="M34.48,103H34.3"/><path class="cls-3" d="M34.3,103h-.18"/><path class="cls-3" d="M33.49,103l.15,0"/><path class="cls-3" d="M32.42,103h0"/><path class="cls-3" d="M32.39,103h-.22"/><path class="cls-3" d="M31.65,103l.23,0"/><path class="cls-3" d="M30.46,103h-.2"/><path class="cls-3" d="M30,103h-.17"/><line class="cls-3" x1="29.35" y1="102.97" x2="29.18" y2="102.97"/><path class="cls-3" d="M29.18,103H29"/><path class="cls-3" d="M28.55,103h-.08"/><path class="cls-3" d="M28,103h-.11"/><path class="cls-3" d="M27.5,103h-.2"/><path class="cls-3" d="M27.3,103h-.17"/><path class="cls-2" d="M118.68,67.58a16.88,16.88,0,0,1-2.43,0H114.9l0,0-.09-.07-.06.11h0l.06-.11-.1-.08-.06.15.09,0c-12.13-.07-20.87-.16-33.29-.24H74.9l-.85,0-.3,0h-.21c-.45,0-.89,0-1.35,0l-.32,0H66.56l-.77,0h-.07a7.55,7.55,0,0,0-1-.07H63.53c-6-.06-12.07,0-18.11-.13l-.08.12c-3.65,6.16-7.25,12.35-10.87,18.53-3.28,5.66-6.7,11.25-9.87,17l.19.05.18.11h.27l.19,0h0l-.19,0h3.69l.28,0,.22,0h.22l.27,0,.21,0c.33,0,.67,0,1,0h3.33l.72-.05h.24l.45.06h.51l.37,0h.55l.34,0h4.64c8.1.09,16.19.11,24.3.17l16.63.1h2c.59,0,1.18,0,1.76,0h2c.42,0,.83,0,1.24,0h.08l6.91,0h.08c1.22,0-1.57,0-.35,0h.15l.8,0c3.23-5.35,6.34-10.8,9.52-16.18,3.81-6.53,7.67-13,11.46-19.58l-.11-.05ZM63.13,101.25a4,4,0,0,0,1,.64A3.67,3.67,0,0,1,63.13,101.25Z"/><path class="cls-3" d="M25.91,102.91H26"/><path class="cls-3" d="M26,102.92h.15"/><path class="cls-3" d="M25.65,102.88h-.22"/><path class="cls-3" d="M25.23,102.91h0"/><path class="cls-3" d="M25.43,102.88l-.19,0"/><path class="cls-2" d="M24.93,102.93h0Z"/><line class="cls-3" x1="24.24" y1="102.94" x2="24.07" y2="102.94"/><path class="cls-3" d="M24.07,102.94H23.9"/><path class="cls-3" d="M23.44,102.93h-.08"/><path class="cls-3" d="M22.92,102.93h-.07"/><path class="cls-3" d="M22.39,102.92H22.2"/><path class="cls-2" d="M22.2,102.92h0Z"/><path class="cls-3" d="M21.56,102.92h-.07"/><polygon class="cls-2" points="41.29 3.7 41.21 3.53 41.16 3.61 41.29 3.7"/><path class="cls-2" d="M41.33,67.25l.09-.13C47.59,56.8,51.55,49.83,57.66,39.48c-2.23-4.19-4.67-8.26-7-12.4L39.12,6.78c-.61-1-1.14-2.12-1.83-3.11l-.13-.09C24.11,25.86,13.07,44.68,0,67q10.23,18,20.45,36h0l.07-.06.06-.13c3.17-5.71,6.6-11.3,9.87-17C34.08,79.59,37.69,73.4,41.33,67.25Zm2.81-44.46,0-.16Zm-.08-.47,0,.32,0-.32,0-.15Zm-.83-3.7,0,.15,0-.15,0-.15Z"/><path class="cls-3" d="M44.14,22.79l0-.16"/><path class="cls-3" d="M44.11,22.63l0-.32"/><path class="cls-3" d="M44.06,22.31l0-.15"/><path class="cls-3" d="M43.26,18.77l0-.15"/><path class="cls-3" d="M43.23,18.62l0-.15"/></g></g></svg>